<?xml version="1.0" standalone="no"?>
<!DOCTYPE svg PUBLIC "-//W3C//DTD SVG 20010904//EN"
 "http://www.w3.org/TR/2001/REC-SVG-20010904/DTD/svg10.dtd">
<svg version="1.0" xmlns="http://www.w3.org/2000/svg"
 width="715.000000pt" height="715.000000pt" viewBox="0 0 715.000000 715.000000"
 preserveAspectRatio="xMidYMid meet">

<g transform="translate(0.000000,715.000000) scale(0.100000,-0.100000)"
fill="#000000" stroke="none">
<path d="M3469 6157 c-97 -51 -164 -192 -163 -342 1 -55 11 -121 33 -210 39
-156 149 -515 193 -628 l31 -81 39 110 c55 154 142 431 180 576 28 105 33 140
33 238 -1 136 -20 199 -87 275 -75 85 -172 108 -259 62z"/>
<path d="M3670 6173 c8 -3 30 -12 48 -19 17 -7 32 -9 32 -4 0 5 -17 14 -37 19
-39 11 -70 14 -43 4z"/>
<path d="M3827 6078 c23 -25 49 -60 58 -78 20 -38 30 -34 15 6 -13 34 -42 67
-85 97 -25 18 -24 14 12 -25z"/>
<path d="M3914 5936 c23 -80 25 -120 10 -194 -26 -125 -129 -382 -284 -707
l-71 -150 -19 25 c-19 25 -20 19 -20 -521 l0 -547 73 -3 c52 -3 87 -11 124
-29 29 -15 49 -20 46 -13 -5 12 645 1564 661 1581 8 8 197 -97 311 -173 106
-71 275 -208 275 -223 0 -4 -272 -279 -604 -611 l-605 -604 46 -51 c25 -28 55
-70 67 -94 13 -28 26 -42 36 -39 8 2 362 151 786 331 425 179 774 326 778 326
10 0 84 -246 105 -351 25 -125 41 -254 41 -326 l0 -53 -854 0 -853 0 -6 -67
c-3 -38 -15 -90 -26 -116 -24 -55 -24 -57 -12 -57 6 0 1109 -463 1539 -646
l32 -14 -49 -98 c-79 -157 -175 -296 -319 -462 l-31 -35 -608 608 -609 607
-39 -40 c-22 -23 -65 -53 -96 -67 l-55 -25 313 -742 c173 -407 322 -761 332
-786 11 -24 17 -48 15 -51 -6 -10 -171 -63 -272 -89 -96 -24 -239 -46 -364
-56 l-88 -6 0 860 0 859 -45 -1 -46 -1 0 -675 c0 -371 -4 -709 -8 -750 -7 -69
-8 -71 -10 -22 l-1 52 -52 1 c-63 2 -90 4 -143 13 -22 4 -51 9 -64 11 -14 3
-50 10 -80 16 -31 7 -63 13 -71 14 -8 1 -25 7 -37 13 -19 10 -23 10 -23 0 0
-9 -3 -9 -8 -2 -4 6 -26 18 -50 27 l-43 17 -26 -60 c-14 -33 -28 -59 -30 -57
-2 2 127 313 286 691 160 378 293 695 296 705 4 14 -4 22 -35 36 -22 10 -42
16 -44 14 -2 -2 -117 -274 -256 -604 -139 -330 -288 -685 -332 -788 l-80 -188
-107 57 c-164 86 -295 177 -436 302 l-49 43 607 607 608 608 -33 31 -33 32
-607 -605 -606 -606 -72 83 c-88 103 -211 286 -274 409 -26 50 -46 93 -44 95
5 4 396 171 1016 434 299 126 546 232 549 234 2 3 -4 23 -14 45 l-18 41 -778
-330 c-428 -181 -784 -331 -790 -332 -6 -1 -24 34 -40 78 -58 163 -99 363
-113 552 l-7 93 858 2 858 3 0 45 0 45 -851 3 -852 2 2 73 2 72 3 -67 4 -68
34 0 35 0 1 53 c0 28 2 59 3 67 2 8 6 41 9 72 15 132 78 374 118 449 11 21
-59 58 -72 37 -6 -9 -9 -9 -9 -1 0 34 -12 38 1040 -407 289 -122 530 -224 536
-226 9 -4 49 75 41 82 -3 3 -1460 620 -1539 652 l-37 15 54 106 c30 58 80 144
111 191 57 86 190 256 220 280 13 12 94 -65 624 -595 573 -573 608 -609 595
-629 -29 -45 -55 -146 -55 -215 0 -95 29 -168 97 -241 77 -83 150 -115 268
-115 78 0 98 4 150 28 33 15 80 47 104 70 41 40 101 145 101 177 0 8 -11 -8
-24 -37 -28 -60 -94 -135 -149 -170 -56 -35 -149 -56 -216 -48 -74 8 -170 55
-216 106 -64 71 -90 140 -89 239 0 72 4 94 27 142 48 98 139 173 247 202 37
10 47 15 30 17 -38 2 -51 -1 -99 -22 -24 -11 -45 -18 -48 -16 -2 3 15 12 38
21 25 10 39 21 36 29 -24 53 -598 1408 -663 1563 -7 15 176 75 331 109 66 15
121 28 123 30 2 2 -2 14 -9 27 -10 18 -14 20 -17 7 -3 -15 -46 -27 -122 -35
-8 0 -23 -4 -32 -8 -9 -4 -22 -5 -28 -1 -5 3 -10 1 -10 -5 0 -7 -8 -9 -20 -5
-12 4 -20 2 -20 -5 0 -7 -7 -10 -15 -6 -8 3 -15 1 -15 -5 0 -6 -7 -9 -15 -6
-18 7 -135 -31 -135 -45 0 -5 -4 -7 -9 -3 -14 8 -141 -47 -134 -58 3 -6 1 -7
-5 -3 -12 7 -98 -33 -198 -95 -36 -22 -69 -37 -75 -33 -5 3 -8 0 -7 -8 2 -7
-5 -12 -14 -12 -10 1 -16 -3 -15 -10 1 -6 -6 -11 -15 -11 -9 0 -20 -4 -25 -9
-5 -5 -2 -6 7 -1 20 11 6 -2 -52 -48 -53 -43 -73 -49 -31 -11 l28 26 -37 -27
c-21 -15 -35 -31 -32 -36 3 -5 0 -8 -8 -7 -7 2 -12 -3 -10 -10 1 -8 -2 -11 -8
-7 -12 8 -42 -13 -35 -24 4 -8 -91 -106 -103 -106 -4 0 -6 -3 -4 -8 1 -4 -4
-6 -10 -5 -7 2 -12 -3 -10 -10 1 -6 -3 -11 -9 -10 -19 5 -146 -148 -234 -282
-110 -165 -194 -336 -255 -519 -27 -82 -50 -158 -51 -168 0 -10 -3 -13 -5 -6
-7 16 41 188 81 293 116 304 300 578 548 816 67 64 121 121 120 125 -2 5 19
25 45 45 26 20 42 35 35 33 -7 -2 -60 -42 -118 -88 -392 -313 -673 -776 -775
-1280 -64 -317 -51 -700 35 -1018 161 -599 589 -1121 1145 -1396 153 -76 187
-90 319 -133 357 -118 777 -135 1171 -49 241 53 497 163 720 310 154 102 244
178 395 336 l70 74 -72 -70 c-84 -80 -98 -77 -20 5 28 30 7 12 -48 -41 -55
-52 -131 -120 -170 -151 -236 -188 -557 -344 -850 -413 -121 -29 -308 -56
-373 -54 -30 1 -12 5 48 11 306 28 651 144 915 305 122 75 226 153 219 165 -4
6 -2 8 3 5 13 -8 65 31 58 43 -6 10 20 32 28 23 8 -8 48 27 42 37 -2 3 28 38
68 76 l72 69 -70 -75 -70 -75 73 70 c39 38 72 77 72 86 0 9 10 24 23 35 l22
19 -20 -25 -20 -25 22 18 c12 11 19 24 17 31 -4 12 21 41 35 41 3 0 5 4 3 8
-1 5 10 25 26 45 59 76 124 181 117 192 -4 6 -1 9 7 8 7 -2 12 5 12 14 -1 10
3 15 9 11 6 -4 8 0 4 11 -4 9 -3 15 2 12 11 -7 124 231 116 244 -3 5 -1 10 5
10 7 0 9 7 6 16 -4 10 -2 13 6 8 8 -5 9 -2 5 9 -3 10 -3 17 2 17 5 0 9 12 9
27 0 15 4 29 10 31 6 2 8 10 5 18 -3 8 0 14 7 14 6 0 9 4 6 9 -4 5 5 51 19
103 38 145 56 269 62 443 10 264 -23 491 -106 745 -226 686 -793 1215 -1494
1394 -94 25 -133 39 -135 50 -2 9 -8 13 -14 10 -8 -5 -9 3 -3 27 4 19 9 68 9
110 1 59 6 80 20 94 11 11 16 27 13 42 -4 20 0 23 29 23 46 0 279 -61 404
-106 150 -55 376 -169 512 -260 584 -393 967 -994 1073 -1684 23 -147 30 -430
16 -586 -77 -838 -580 -1581 -1329 -1962 -364 -186 -704 -266 -1122 -265 -230
0 -338 12 -546 58 -780 175 -1449 756 -1739 1510 -113 294 -160 550 -160 880
1 220 11 322 51 516 166 799 737 1470 1508 1773 128 51 317 106 434 127 59 10
76 17 82 33 4 12 6 22 5 24 -5 6 -177 -28 -275 -55 -341 -92 -689 -271 -950
-491 -475 -398 -776 -928 -876 -1539 -25 -152 -30 -525 -9 -696 120 -998 845
-1834 1819 -2101 246 -67 348 -80 651 -81 291 0 349 6 575 57 581 131 1098
474 1463 969 441 600 586 1413 381 2142 -112 398 -334 783 -621 1072 -230 234
-510 427 -788 545 -156 66 -284 107 -483 154 -177 41 -183 42 -178 22z m-848
-1383 c173 -407 314 -747 313 -755 0 -7 -22 -31 -47 -53 -34 -28 -39 -31 -20
-9 l28 30 -605 604 c-333 333 -605 608 -605 611 0 12 197 170 283 228 45 30
131 81 191 112 l110 57 19 -41 c10 -23 160 -376 333 -784z m-856 633 c0 -2
-21 -21 -47 -42 l-48 -37 40 41 c34 37 55 51 55 38z m-609 -1057 c-11 -30 -20
-49 -20 -43 -1 15 30 106 35 101 2 -2 -5 -28 -15 -58z m-27 -93 c-3 -15 -8
-25 -11 -23 -2 3 -1 17 3 31 3 15 8 25 11 23 2 -3 1 -17 -3 -31z m-17 -58 c-3
-8 -6 -5 -6 6 -1 11 2 17 5 13 3 -3 4 -12 1 -19z m-10 -40 c-3 -8 -6 -5 -6 6
-1 11 2 17 5 13 3 -3 4 -12 1 -19z m-90 -30 c-3 -7 -5 -2 -5 12 0 14 2 19 5
13 2 -7 2 -19 0 -25z m80 -20 c-3 -7 -5 -2 -5 12 0 14 2 19 5 13 2 -7 2 -19 0
-25z m-90 -30 c-3 -7 -5 -2 -5 12 0 14 2 19 5 13 2 -7 2 -19 0 -25z m77 -47
c-4 -28 -9 -50 -11 -47 -3 3 -2 28 2 56 4 28 9 49 12 47 2 -3 1 -28 -3 -56z
m-90 -40 c-4 -34 -9 -60 -11 -57 -3 3 -2 32 2 66 4 34 9 59 12 57 2 -3 1 -33
-3 -66z m73 -83 c-2 -13 -4 -3 -4 22 0 25 2 35 4 23 2 -13 2 -33 0 -45z m-90
-50 c-2 -13 -4 -5 -4 17 -1 22 1 32 4 23 2 -10 2 -28 0 -40z m3693 -1751 c0
-2 -10 -12 -22 -23 l-23 -19 19 23 c18 21 26 27 26 19z"/>
<path d="M3350 3795 c-8 -9 -8 -15 -2 -15 12 0 26 19 19 26 -2 2 -10 -2 -17
-11z"/>
<path d="M2239 5203 c-13 -16 -12 -17 4 -4 16 13 21 21 13 21 -2 0 -10 -8 -17
-17z"/>
<path d="M2289 5193 c-13 -16 -12 -17 4 -4 9 7 17 15 17 17 0 8 -8 3 -21 -13z"/>
<path d="M2090 5025 c-24 -25 -42 -45 -39 -45 3 0 25 20 49 45 24 25 42 45 39
45 -3 0 -25 -20 -49 -45z"/>
<path d="M3464 3701 c-49 -22 -106 -78 -130 -129 -27 -54 -25 -164 3 -218 52
-98 132 -148 238 -148 59 0 78 4 116 26 78 46 139 130 139 193 0 40 -15 29
-28 -20 -13 -49 -76 -126 -124 -151 -36 -19 -145 -20 -188 -2 -51 22 -98 65
-122 112 -32 61 -29 161 7 221 26 45 95 105 122 105 7 0 13 7 13 15 0 18 4 19
-46 -4z"/>
<path d="M3933 3455 c0 -22 2 -30 4 -17 2 12 2 30 0 40 -3 9 -5 -1 -4 -23z"/>
<path d="M3488 3083 c7 -3 16 -2 19 1 4 3 -2 6 -13 5 -11 0 -14 -3 -6 -6z"/>
<path d="M1702 2608 l-22 -11 51 -96 c86 -158 186 -303 295 -424 l36 -39 32
31 c17 18 25 31 17 29 -18 -4 -132 127 -207 238 -61 92 -98 156 -137 236 -23
50 -29 53 -65 36z"/>
</g>
</svg>
